<svg xmlns="http://www.w3.org/2000/svg" viewBox="0 0 256 256" width="256" height="256">
  <defs>
    <linearGradient id="chip" x1="0" y1="0" x2="0" y2="1">
      <stop offset="0" stop-color="#2a2740"/>
      <stop offset="1" stop-color="#1e1b2e"/>
    </linearGradient>
    <linearGradient id="pin" x1="0" y1="0" x2="0" y2="1">
      <stop offset="0" stop-color="#cbd5e1"/>
      <stop offset="1" stop-color="#94a3b8"/>
    </linearGradient>
  </defs>

  <g fill="url(#pin)">
    <!-- top pins (5) -->
    <rect x="73"  y="24" width="14" height="24" rx="2"/>
    <rect x="97"  y="24" width="14" height="24" rx="2"/>
    <rect x="121" y="24" width="14" height="24" rx="2"/>
    <rect x="145" y="24" width="14" height="24" rx="2"/>
    <rect x="169" y="24" width="14" height="24" rx="2"/>
    <!-- bottom pins (5) -->
    <rect x="73"  y="208" width="14" height="24" rx="2"/>
    <rect x="97"  y="208" width="14" height="24" rx="2"/>
    <rect x="121" y="208" width="14" height="24" rx="2"/>
    <rect x="145" y="208" width="14" height="24" rx="2"/>
    <rect x="169" y="208" width="14" height="24" rx="2"/>
    <!-- left pins (5) -->
    <rect x="24" y="73"  width="24" height="14" rx="2"/>
    <rect x="24" y="97"  width="24" height="14" rx="2"/>
    <rect x="24" y="121" width="24" height="14" rx="2"/>
    <rect x="24" y="145" width="24" height="14" rx="2"/>
    <rect x="24" y="169" width="24" height="14" rx="2"/>
    <!-- right pins (5) -->
    <rect x="208" y="73"  width="24" height="14" rx="2"/>
    <rect x="208" y="97"  width="24" height="14" rx="2"/>
    <rect x="208" y="121" width="24" height="14" rx="2"/>
    <rect x="208" y="145" width="24" height="14" rx="2"/>
    <rect x="208" y="169" width="24" height="14" rx="2"/>
  </g>

  <rect x="48" y="48" width="160" height="160" rx="16" fill="url(#chip)" stroke="#0f0d1a" stroke-width="6"/>

  <circle cx="66" cy="66" r="7" fill="#a78bfa"/>

  <text x="128" y="155"
        font-family="-apple-system, Helvetica, Arial, sans-serif"
        font-weight="800"
        font-size="74"
        text-anchor="middle"
        fill="#a78bfa"
        letter-spacing="-2">UF2</text>
</svg>
