<svg xmlns="http://www.w3.org/2000/svg" viewBox="0 0 256 256" width="256" height="256">
  <defs>
    <linearGradient id="chip" x1="0" y1="0" x2="0" y2="1">
      <stop offset="0" stop-color="#2a2740"/>
      <stop offset="1" stop-color="#1e1b2e"/>
    </linearGradient>
    <linearGradient id="pin" x1="0" y1="0" x2="0" y2="1">
      <stop offset="0" stop-color="#cbd5e1"/>
      <stop offset="1" stop-color="#94a3b8"/>
    </linearGradient>
    <linearGradient id="paper" x1="0" y1="0" x2="0" y2="1">
      <stop offset="0" stop-color="#f8fafc"/>
      <stop offset="1" stop-color="#e2e8f0"/>
    </linearGradient>
    <linearGradient id="fold" x1="0" y1="0" x2="1" y2="1">
      <stop offset="0" stop-color="#cbd5e1"/>
      <stop offset="1" stop-color="#94a3b8"/>
    </linearGradient>
  </defs>

  <!-- File / document shape with folded corner -->
  <path d="M 40 16
           L 168 16
           L 224 72
           L 224 232
           Q 224 240 216 240
           L 40 240
           Q 32 240 32 232
           L 32 24
           Q 32 16 40 16 Z"
        fill="url(#paper)"
        stroke="#475569"
        stroke-width="4"
        stroke-linejoin="round"/>

  <!-- Folded corner -->
  <path d="M 168 16 L 168 64 Q 168 72 176 72 L 224 72 Z"
        fill="url(#fold)"
        stroke="#475569"
        stroke-width="4"
        stroke-linejoin="round"/>

  <!-- Chip with pins, scaled and centered inside the file -->
  <g transform="translate(48, 64) scale(0.64)">
    <g fill="url(#pin)">
      <!-- top pins (5) -->
      <rect x="72"  y="24" width="16" height="24" rx="2"/>
      <rect x="96"  y="24" width="16" height="24" rx="2"/>
      <rect x="120" y="24" width="16" height="24" rx="2"/>
      <rect x="144" y="24" width="16" height="24" rx="2"/>
      <rect x="168" y="24" width="16" height="24" rx="2"/>
      <!-- bottom pins (5) -->
      <rect x="72"  y="208" width="16" height="24" rx="2"/>
      <rect x="96"  y="208" width="16" height="24" rx="2"/>
      <rect x="120" y="208" width="16" height="24" rx="2"/>
      <rect x="144" y="208" width="16" height="24" rx="2"/>
      <rect x="168" y="208" width="16" height="24" rx="2"/>
      <!-- left pins (5) -->
      <rect x="24" y="72"  width="24" height="16" rx="2"/>
      <rect x="24" y="96"  width="24" height="16" rx="2"/>
      <rect x="24" y="120" width="24" height="16" rx="2"/>
      <rect x="24" y="144" width="24" height="16" rx="2"/>
      <rect x="24" y="168" width="24" height="16" rx="2"/>
      <!-- right pins (5) -->
      <rect x="208" y="72"  width="24" height="16" rx="2"/>
      <rect x="208" y="96"  width="24" height="16" rx="2"/>
      <rect x="208" y="120" width="24" height="16" rx="2"/>
      <rect x="208" y="144" width="24" height="16" rx="2"/>
      <rect x="208" y="168" width="24" height="16" rx="2"/>
    </g>

    <rect x="48" y="48" width="160" height="160" rx="16" fill="url(#chip)" stroke="#0f0d1a" stroke-width="6"/>

    <circle cx="64" cy="64" r="8" fill="#a78bfa"/>

    <text x="128" y="152"
          font-family="-apple-system, Helvetica, Arial, sans-serif"
          font-weight="800"
          font-size="72"
          text-anchor="middle"
          fill="#a78bfa"
          letter-spacing="-2">UF2</text>
  </g>
</svg>
