<svg xmlns="http://www.w3.org/2000/svg" viewBox="0 0 256 256" width="256" height="256">
  <defs>
    <linearGradient id="paper" x1="0" y1="0" x2="0" y2="1">
      <stop offset="0" stop-color="#ffffff"></stop>
      <stop offset="1" stop-color="#e9ecf3"></stop>
    </linearGradient>
    <linearGradient id="fold" x1="0" y1="0" x2="1" y2="1">
      <stop offset="0" stop-color="#c7cdda"></stop>
      <stop offset="1" stop-color="#9aa3b6"></stop>
    </linearGradient>
    <linearGradient id="chip" x1="0" y1="0" x2="0" y2="1">
      <stop offset="0" stop-color="#2a2740"></stop>
      <stop offset="1" stop-color="#1a1828"></stop>
    </linearGradient>
    <linearGradient id="pin" x1="0" y1="0" x2="0" y2="1">
      <stop offset="0" stop-color="#d4d9e3"></stop>
      <stop offset="1" stop-color="#9aa3b6"></stop>
    </linearGradient>
    <linearGradient id="band" x1="0" y1="0" x2="0" y2="1">
      <stop offset="0" stop-color="#8b5cff"></stop>
      <stop offset="1" stop-color="#6d3df0"></stop>
    </linearGradient>
    <filter id="bandShadow" x="-10%" y="-50%" width="120%" height="200%">
      <feGaussianBlur in="SourceAlpha" stdDeviation="2"></feGaussianBlur>
      <feOffset dx="0" dy="3" result="o"></feOffset>
      <feComponentTransfer><feFuncA type="linear" slope="0.35"></feFuncA></feComponentTransfer>
      <feMerge><feMergeNode></feMergeNode><feMergeNode in="SourceGraphic"></feMergeNode></feMerge>
    </filter>
    <clipPath id="paperClip">
      <path d="M 60 16 L 164 16 L 204 56 L 204 232 Q 204 240 196 240 L 60 240 Q 52 240 52 232 L 52 24 Q 52 16 60 16 Z"></path>
    </clipPath>
  </defs>

  
  <path d="M 60 16 L 164 16 L 204 56 L 204 232 Q 204 240 196 240 L 60 240 Q 52 240 52 232 L 52 24 Q 52 16 60 16 Z" fill="url(#paper)" stroke="#3b4252" stroke-width="6" stroke-linejoin="round"></path>

  
  <path d="M 164 16 L 164 48 Q 164 56 172 56 L 204 56" fill="url(#fold)" stroke="#3b4252" stroke-width="6" stroke-linejoin="round" stroke-linecap="round"></path>
  <path d="M 164 16 L 204 56" stroke="#3b4252" stroke-width="6" stroke-linecap="round" fill="none"></path>

  
  <g clip-path="url(#paperClip)">
    <g transform="translate(128 132) scale(0.5) translate(-128 -128)">
      <g fill="url(#pin)" stroke="#3b4252" stroke-width="3" stroke-linejoin="round">
        
        <rect x="72" y="22" width="16" height="28" rx="2"></rect>
        <rect x="96" y="22" width="16" height="28" rx="2"></rect>
        <rect x="120" y="22" width="16" height="28" rx="2"></rect>
        <rect x="144" y="22" width="16" height="28" rx="2"></rect>
        <rect x="168" y="22" width="16" height="28" rx="2"></rect>
        
        <rect x="72" y="206" width="16" height="28" rx="2"></rect>
        <rect x="96" y="206" width="16" height="28" rx="2"></rect>
        <rect x="120" y="206" width="16" height="28" rx="2"></rect>
        <rect x="144" y="206" width="16" height="28" rx="2"></rect>
        <rect x="168" y="206" width="16" height="28" rx="2"></rect>
        
        <rect x="22" y="72" width="28" height="16" rx="2"></rect>
        <rect x="22" y="96" width="28" height="16" rx="2"></rect>
        <rect x="22" y="120" width="28" height="16" rx="2"></rect>
        <rect x="22" y="144" width="28" height="16" rx="2"></rect>
        <rect x="22" y="168" width="28" height="16" rx="2"></rect>
        
        <rect x="206" y="72" width="28" height="16" rx="2"></rect>
        <rect x="206" y="96" width="28" height="16" rx="2"></rect>
        <rect x="206" y="120" width="28" height="16" rx="2"></rect>
        <rect x="206" y="144" width="28" height="16" rx="2"></rect>
        <rect x="206" y="168" width="28" height="16" rx="2"></rect>
      </g>

      
      <rect x="50" y="50" width="156" height="156" rx="18" fill="url(#chip)" stroke="#0f0d1a" stroke-width="6"></rect>

      
      <circle cx="70" cy="70" r="7" fill="#8b5cff"></circle>

      
    </g>
  </g>

  
  <g filter="url(#bandShadow)">
    
    <path d="M 40 168 L 48 160 L 48 208 L 40 200 Z" fill="#4a23b8"></path>
    
    <path d="M 216 168 L 208 160 L 208 208 L 216 200 Z" fill="#4a23b8"></path>
    
    <rect x="40" y="160" width="176" height="48" rx="3" fill="url(#band)" stroke="#3b4252" stroke-width="5" stroke-linejoin="round"></rect>
  </g>

  
  <text x="128" y="197" font-family="-apple-system, Helvetica, Arial, sans-serif" font-weight="800" font-size="36" text-anchor="middle" fill="#ffffff" letter-spacing="2">UF2</text>
</svg>